<svg xmlns="http://www.w3.org/2000/svg" width="192" height="256" viewBox="0 0 192 256">
  <defs>
    <linearGradient id="initial-commit-a" x1="50%" x2="50%" y1=".429%" y2="100%">
      <stop offset="0%" stop-color="#7F7F7F"/>
      <stop offset="100%"/>
    </linearGradient>
  </defs>
  <path fill="url(#initial-commit-a)" stroke="#FFF" stroke-width="3" d="M32,1.5 C40.3636719,1.5 47.9870642,4.94588458 53.5205898,10.4794102 C59.0541154,16.0129358 62.5,23.6363281 62.5,32 C62.5,38.4611057 60.4273172,44.4498534 56.9236901,49.3729828 C53.1990448,54.6066764 47.8586094,58.6378276 41.6678487,60.7551396 L41.15,60.9271368 L41.15,157.054742 L43.5671713,155.186928 C44.0012818,154.851478 44.4355584,154.49354 44.8725716,154.133001 C45.5231351,153.596281 46.1796015,153.052428 46.8575899,152.580833 C59.8072236,143.818806 75.1400988,140.405784 89.6640088,137.139514 C91.1130146,136.813648 92.5542338,136.48953 93.9889617,136.1612 C110.154573,132.411183 125.132506,128.367965 134.86324,121.57671 C143.289871,115.646858 148.982596,108.428271 150.492019,93.8545305 C150.533108,93.4578088 150.570046,93.0657865 150.602489,92.6780442 C150.242506,92.5573211 149.884259,92.4299653 149.527957,92.2959837 C143.631327,90.078656 138.529903,86.1454439 134.950028,81.0910008 C131.529411,76.2614152 129.5,70.4066516 129.5,64.05 C129.5,55.6863281 132.945885,48.0629358 138.47941,42.5294102 C144.012936,36.9958846 151.636328,33.55 160,33.55 C168.363672,33.55 175.987064,36.9958846 181.52059,42.5294102 C187.054115,48.0629358 190.5,55.6863281 190.5,64.05 C190.5,70.5283897 188.395592,76.5234615 184.844966,81.4434972 C181.160157,86.549468 175.919358,90.4993708 169.851954,92.6350971 C169.552732,92.7404234 169.252312,92.841051 168.95086,92.9404875 C168.922061,93.2577087 168.891114,93.575972 168.858001,93.8952742 C166.810754,113.636585 157.475313,127.792411 145.138662,136.471954 C131.381497,146.121077 115.027281,149.967275 99.6278143,153.516241 L98.8037764,153.706111 L98.0130433,153.888337 C81.7549523,157.636308 66.8845209,161.573592 57.1607907,168.106727 C48.8182568,173.737937 43.4777292,180.452457 41.8603128,194.174409 C41.8134211,194.572232 41.7709425,194.965054 41.7331844,195.352795 C42.09271,195.477804 42.4504007,195.609507 42.8060484,195.747897 C48.6213494,198.010755 53.6308167,201.960446 57.1433093,207.003807 C60.5102651,211.838201 62.5,217.678866 62.5,224 C62.5,232.363672 59.0541154,239.987064 53.5205898,245.52059 C47.9870642,251.054115 40.3636719,254.5 32,254.5 C23.6363281,254.5 16.0129358,251.054115 10.4794102,245.52059 C4.94588458,239.987064 1.5,232.363672 1.5,224 C1.5,217.538894 3.57268282,211.550147 7.07630993,206.627017 C10.8009552,201.393324 16.1413906,197.362172 22.3321513,195.24486 L22.85,195.072863 L22.85,60.9271368 C16.4393282,58.8608525 10.9044175,54.7520567 7.07630993,49.3729828 C3.57268282,44.4498534 1.5,38.4611057 1.5,32 C1.5,23.6363281 4.94588458,16.0129358 10.4794102,10.4794102 C16.0129358,4.94588458 23.6363281,1.5 32,1.5 Z M32,211.85 C28.5774648,211.85 25.5446303,213.184049 23.3643398,215.36434 C21.1840494,217.54463 19.85,220.577465 19.85,224 C19.85,227.422535 21.1840494,230.45537 23.3643398,232.63566 C25.5446303,234.815951 28.5774648,236.15 32,236.15 C35.4225352,236.15 38.4553697,234.815951 40.6356602,232.63566 C42.8159506,230.45537 44.15,227.422535 44.15,224 C44.15,220.577465 42.8159506,217.54463 40.6356602,215.36434 C38.4553697,213.184049 35.4225352,211.85 32,211.85 Z M160,51.85 C156.577465,51.85 153.54463,53.1840494 151.36434,55.3643398 C149.184049,57.5446303 147.85,60.5774648 147.85,64 C147.85,67.4225352 149.184049,70.4553697 151.36434,72.6356602 C153.54463,74.8159506 156.577465,76.15 160,76.15 C163.422535,76.15 166.45537,74.8159506 168.63566,72.6356602 C170.815951,70.4553697 172.15,67.4225352 172.15,64 C172.15,60.5774648 170.815951,57.5446303 168.63566,55.3643398 C166.45537,53.1840494 163.422535,51.85 160,51.85 Z M32,19.85 C28.5774648,19.85 25.5446303,21.1840494 23.3643398,23.3643398 C21.1840494,25.5446303 19.85,28.5774648 19.85,32 C19.85,35.4225352 21.1840494,38.4553697 23.3643398,40.6356602 C25.5446303,42.8159506 28.5774648,44.15 32,44.15 C35.4225352,44.15 38.4553697,42.8159506 40.6356602,40.6356602 C42.8159506,38.4553697 44.15,35.4225352 44.15,32 C44.15,28.5774648 42.8159506,25.5446303 40.6356602,23.3643398 C38.4553697,21.1840494 35.4225352,19.85 32,19.85 Z"/>
</svg>
